<svg width="485" height="485" viewBox="0 0 485 485" fill="none" xmlns="http://www.w3.org/2000/svg">
<path d="M154.517 127.93C151.992 122.628 150.082 115.794 148.787 107.43C147.148 98.5163 146.701 89.623 147.445 80.7505C148.41 70.9751 150.739 61.4954 154.43 52.3114C157.778 42.5775 163.175 34.2392 170.622 27.2965C186.645 12.7055 202.308 4.45501 217.61 2.54501C232.911 0.635029 245.902 1.31425 256.583 4.58265C260.904 6.47114 262.953 7.86679 262.732 8.76961C262.288 10.5753 260.138 11.5352 256.283 11.6495C251.518 11.5667 244.665 13.1703 235.723 16.4602C227.346 19.3973 218.98 24.2386 210.625 30.9841C202.491 36.8268 195.56 44.5944 189.83 54.2869C184.665 63.6266 182.63 74.8341 183.725 87.9094C185.041 100.082 187.942 111.647 192.428 122.605C196.914 133.563 201.621 143.619 206.55 152.771C211.701 161.021 216.447 167.994 220.79 173.691C225.132 179.388 227.99 183.337 229.364 185.537C234.271 190.881 239.926 198.051 246.329 207.048C252.954 215.142 259.185 223.864 265.022 233.213C270.86 242.563 276.415 252.089 281.687 261.792C286.616 270.944 290.294 279.35 292.719 287.008C293.184 289.011 294.053 292.29 295.327 296.845C297.165 301.048 297.519 303.502 296.389 304.208C293.563 305.972 290.949 304.929 288.545 301.079C286.141 297.23 284.424 294.48 283.394 292.83C273.679 279.786 263.117 267.271 251.706 255.286C239.953 242.751 228.027 229.941 215.93 216.856C204.398 203.417 193.431 189.627 183.029 175.483C172.284 160.789 162.78 144.938 154.517 127.93ZM226.834 309.799C220.532 298.446 209.787 283.753 194.599 265.718C179.633 246.78 164.191 223.935 148.274 197.183C140.254 183.081 132.911 168.174 126.243 152.463C119.232 136.202 115.501 118.276 115.05 98.6836C114.477 77.6386 118.74 59.307 127.84 43.689C137.16 27.1681 147.079 26.007 157.594 20.2057C159.29 19.1472 160.985 18.0886 162.68 17.0301C164.376 15.9716 165.395 15.7173 165.739 16.2673C166.425 17.3672 166.486 18.0936 165.921 18.4465C165.013 18.2493 163.206 19.7593 160.502 22.9763C152.047 32.0775 145.924 32.3979 142.132 43.9375C137.998 54.9271 135.68 66.3111 135.18 78.0892C134.679 89.8674 135.481 101.215 137.584 112.132C139.688 123.048 142.689 132.258 146.588 139.761C162.083 172.127 178.849 198.349 196.883 218.428C211.041 234.814 225.148 252.376 239.206 271.117C252.92 289.308 263.232 307.711 270.143 326.328C277.275 344.042 279.755 361.221 277.58 377.866C275.628 393.608 251.953 420.675 234.555 433.066C232.86 434.125 230.599 435.536 227.774 437.3C225.17 438.162 223.525 438.043 222.838 436.943C222.151 435.843 223.492 432.33 226.861 426.404C237.434 410.631 255.032 382.008 251.655 366.535C248.278 351.063 240.005 332.151 226.834 309.799ZM199.98 472.471C215.446 479.631 231.323 471.72 252.055 467.184C273.007 461.745 293.291 448.317 312.906 426.897C322.714 416.188 329.563 403.885 333.454 389.99C337.345 376.095 339.026 362.433 338.497 349.005C338.189 334.674 336.014 321.126 331.971 308.363C328.494 295.246 324.12 283.836 318.847 274.134C309.798 258.382 299.789 243.61 288.822 229.819C278.421 215.675 267.797 202.434 256.952 190.096C246.328 176.855 236.048 164.164 226.112 152.023C216.74 139.53 208.671 126.605 201.903 113.25C194.448 98.7947 191.88 85.8751 194.197 74.4912C196.515 63.1073 201.962 53.5912 210.539 45.9428C219.338 37.3917 234.136 27.414 246.934 24.0098C259.732 20.6055 272.884 19.6555 286.39 21.1597C289.337 20.8483 291.044 21.6939 291.509 23.6968C292.195 24.7967 291.802 25.4245 290.328 25.5802C288.855 25.736 287.381 25.8917 285.907 26.0474C260.877 32.503 239.286 44.8106 229.135 54.9703C219.55 64.7772 219.514 78.5581 229.029 96.3132C240.261 116.818 256.268 139.31 277.05 163.789C298.053 187.366 318.12 215.731 337.249 248.885C344.682 259.532 351.167 273.064 356.705 289.48C362.807 305.544 366.477 322.744 367.715 341.081C369.175 358.514 367.233 376.161 361.89 394.02C357.112 411.527 347.669 426.595 333.563 439.225C306.358 462.325 281.31 475.671 258.418 479.263C236.092 482.501 218.215 487.839 200.345 476.829C197.154 474.235 195.387 472.663 195.044 472.113L195.892 471.584C195.892 471.584 197.255 471.879 199.98 472.471ZM221.057 452.96C233.511 449.006 247.196 441.99 262.111 431.913C266.854 428.188 272.212 422.931 278.185 416.145C284.158 409.358 287.771 406.338 289.023 407.085C292.092 408.226 292.113 412.035 289.087 418.51C286.061 424.986 281.451 432.068 275.256 439.758C268.718 446.898 261.554 453.664 253.764 460.057C245.63 465.899 238.051 469.485 231.026 470.814C217.541 473.118 206.993 473.206 199.382 471.079C190.862 468.755 182.22 464.978 173.457 459.748L169.701 457.507C167.197 456.013 166.056 454.814 166.278 453.912C166.5 453.009 167.347 452.479 168.821 452.324C169.729 452.521 170.355 452.894 170.699 453.444C181.258 455.26 189.828 456.406 196.409 456.883C203.212 456.458 211.428 455.15 221.057 452.96Z" fill="#F9F4ED"/>
<path d="M113.866 36.7585C227.236 -34.0256 376.522 0.4963 447.306 113.866C518.09 227.236 483.568 376.522 370.198 447.306C257.271 517.814 108.708 483.836 37.5914 371.523L36.7584 370.198C-33.7493 257.271 0.228531 108.708 112.542 37.5915L113.866 36.7585ZM430.341 124.459C365.407 20.4584 228.459 -11.2115 124.459 53.7223C20.4582 118.657 -11.2119 255.606 53.7222 359.606C118.656 463.607 255.606 495.276 359.606 430.341C463.606 365.407 495.275 228.459 430.341 124.459Z" fill="#F9F4ED"/>
</svg>
